<?xml version="1.0" standalone="no"?>
<!DOCTYPE svg PUBLIC "-//W3C//DTD SVG 20010904//EN"
 "http://www.w3.org/TR/2001/REC-SVG-20010904/DTD/svg10.dtd">
<svg version="1.0" xmlns="http://www.w3.org/2000/svg"
 width="649.000000pt" height="386.000000pt" viewBox="0 0 649.000000 386.000000"
 preserveAspectRatio="xMidYMid meet">
<metadata>
Created by potrace 1.13, written by Peter Selinger 2001-2015
</metadata>
<g transform="translate(0.000000,386.000000) scale(0.100000,-0.100000)"
fill="#ffffff" stroke="none">
<path d="M1058 3846 c-31 -6 -63 -17 -70 -23 -6 -7 -23 -13 -37 -13 -39 0
-125 -36 -156 -64 -15 -14 -31 -24 -34 -21 -4 2 -26 -1 -49 -7 -28 -7 -59 -27
-95 -62 -40 -39 -67 -56 -103 -65 -27 -7 -56 -15 -64 -17 -8 -3 -28 -16 -45
-29 -26 -21 -28 -27 -18 -44 11 -18 7 -25 -41 -68 -32 -29 -66 -73 -86 -111
l-33 -63 -25 23 -25 23 17 -32 17 -33 -27 0 c-19 0 -25 -4 -20 -15 3 -9 0 -15
-8 -15 -8 0 -12 -11 -11 -30 1 -17 -2 -33 -7 -36 -4 -3 -8 -13 -8 -23 0 -10
-20 -36 -44 -59 -50 -47 -62 -72 -47 -101 20 -36 13 -109 -14 -155 -21 -36
-23 -47 -15 -76 5 -19 7 -43 4 -52 -3 -10 0 -18 6 -18 8 0 10 -8 7 -21 -3 -12
3 -37 14 -58 10 -19 19 -40 19 -46 0 -15 77 -86 130 -120 25 -15 57 -37 73
-47 15 -10 48 -28 74 -39 85 -36 323 -24 459 24 115 41 301 162 387 251 109
114 241 335 267 451 7 28 14 57 17 65 3 8 7 22 8 30 2 8 8 38 14 65 21 98 21
175 -2 245 -11 36 -23 67 -27 70 -3 3 -16 22 -30 42 -14 21 -43 51 -65 66 -44
32 -165 92 -183 92 -7 0 -12 5 -12 10 0 6 8 10 18 10 35 0 68 62 40 73 -10 4
-10 6 -1 6 7 1 10 8 7 16 -7 18 -88 19 -176 1z m199 -259 c6 -4 18 -35 28 -69
13 -49 15 -92 12 -193 -6 -185 -43 -315 -90 -315 -20 -1 -21 -2 -4 -14 23 -18
22 -32 -8 -58 -14 -12 -25 -30 -25 -40 0 -10 -4 -18 -8 -18 -5 0 -15 -15 -24
-32 -9 -18 -48 -67 -87 -110 -54 -58 -76 -75 -91 -71 -14 4 -20 0 -20 -11 0
-11 5 -15 13 -10 18 10 0 -7 -54 -49 -25 -20 -57 -37 -71 -37 -13 0 -28 -4
-34 -9 -5 -4 -31 -14 -59 -21 -27 -8 -60 -24 -72 -37 -15 -16 -33 -23 -59 -23
-31 0 -36 -3 -31 -20 4 -15 0 -20 -14 -20 -10 0 -19 7 -19 15 0 22 -27 18 -46
-7 -11 -16 -15 -17 -11 -5 4 9 2 17 -3 17 -6 0 -10 -6 -10 -14 0 -8 -5 -18
-11 -22 -8 -4 -9 0 -4 15 7 24 -12 28 -46 10 -25 -13 -59 -3 -59 17 0 10 -6
13 -18 10 -30 -10 -49 23 -62 104 -23 152 -24 185 -2 242 11 29 33 84 47 123
34 88 96 195 145 248 164 178 207 226 222 245 10 12 27 22 38 22 13 0 18 4 15
11 -17 27 106 85 243 114 103 21 253 28 279 12z"/>
<path d="M3887 3729 c-4 -33 -22 -80 -53 -136 -38 -70 -45 -90 -36 -104 9 -14
8 -27 -5 -56 -9 -21 -20 -58 -24 -83 -4 -25 -13 -65 -19 -90 -6 -25 -13 -54
-15 -65 -2 -11 -8 -33 -14 -50 -5 -16 -15 -63 -21 -104 -6 -41 -15 -80 -21
-87 -22 -27 -39 -185 -41 -394 -1 -158 -2 -155 37 -189 43 -38 92 -48 131 -28
32 17 85 73 107 115 107 198 208 362 224 362 7 0 20 16 29 35 16 34 34 54 34
38 0 -4 -22 -61 -49 -125 -28 -64 -55 -145 -62 -180 -6 -35 -20 -94 -30 -133
-50 -193 -7 -338 100 -338 45 0 71 16 71 44 0 14 -7 19 -29 19 -27 0 -29 3
-34 53 -2 28 -1 57 5 64 5 6 10 28 11 47 1 20 8 38 15 41 6 2 12 12 12 22 0
10 9 32 19 49 11 18 16 36 11 40 -4 5 3 41 16 79 12 39 23 82 23 96 1 15 14
51 30 81 15 30 31 72 35 94 4 21 25 84 46 139 41 106 65 192 81 289 5 33 11
62 14 64 10 10 -25 28 -90 46 -122 32 -125 32 -125 0 -1 -69 -29 -146 -83
-227 -30 -45 -83 -134 -117 -197 -80 -148 -289 -498 -301 -506 -12 -7 -4 193
9 209 5 7 13 37 16 67 7 51 15 79 37 122 5 10 9 26 9 36 0 10 3 22 7 25 3 4 8
24 10 44 2 21 8 40 12 43 6 4 17 33 26 70 0 3 6 14 12 25 6 11 16 47 23 79 7
33 16 67 21 75 12 21 29 66 45 116 29 92 81 235 87 242 4 3 7 21 7 40 0 27 -5
35 -27 44 -16 6 -50 25 -78 44 -27 18 -59 36 -71 39 -19 6 -22 1 -27 -45z"/>
<path d="M4749 3503 c-9 -2 -22 -23 -29 -46 -6 -23 -16 -52 -21 -65 -5 -13 -7
-28 -3 -33 3 -5 -1 -12 -9 -15 -8 -3 -19 -22 -23 -42 -11 -51 -12 -54 -13 -79
0 -12 -7 -28 -14 -35 -7 -7 -14 -26 -15 -43 -3 -42 -32 -125 -43 -125 -5 0 -9
-14 -9 -31 0 -17 -6 -43 -14 -57 -13 -25 -82 -238 -122 -375 -11 -38 -21 -56
-30 -53 -7 3 -18 -2 -24 -9 -16 -20 -4 -49 16 -41 12 5 15 2 9 -11 -4 -10 -10
-26 -12 -35 -3 -10 -9 -18 -13 -18 -8 0 -20 -48 -23 -94 -1 -16 -12 -40 -24
-52 -23 -24 -31 -68 -13 -79 10 -6 2 -36 -13 -46 -8 -6 -16 -33 -34 -120 -9
-46 17 -47 58 -1 20 23 41 42 47 42 5 0 12 7 16 15 3 9 12 12 23 8 17 -6 17
-5 1 14 -20 22 -23 49 -8 58 6 4 24 30 41 60 16 29 44 68 63 86 18 19 36 49
39 68 4 18 16 44 27 58 12 16 18 34 14 48 -4 16 7 39 36 81 23 32 46 58 52 56
6 -2 8 4 4 14 -8 20 11 94 24 94 6 0 10 9 10 20 0 36 42 20 103 -39 l38 -36
54 29 c60 31 142 107 183 169 l27 40 8 -49 c5 -27 10 -68 10 -91 2 -53 46
-101 131 -143 135 -68 293 -12 409 145 16 22 27 32 23 22 -17 -51 -17 -66 2
-84 28 -27 65 -57 83 -68 61 -37 59 -37 59 -17 0 20 31 62 46 62 5 1 18 14 29
30 93 137 123 176 181 236 37 38 62 62 57 54 -14 -21 -40 -144 -47 -216 -6
-73 3 -109 46 -181 51 -85 171 -148 213 -113 22 18 19 28 -15 45 -51 26 -75
86 -75 186 0 47 5 97 11 110 19 39 94 219 126 299 16 41 38 92 49 112 34 66
28 80 -50 106 -90 29 -107 28 -126 -8 -8 -16 -15 -34 -15 -41 0 -6 -44 -59
-97 -116 -54 -58 -119 -128 -145 -156 l-47 -52 44 89 c25 49 45 99 45 111 0
13 11 30 26 40 21 14 24 19 13 26 -11 8 -10 12 6 21 16 10 9 14 -55 29 -41 10
-91 18 -110 19 l-35 0 -83 -207 c-46 -115 -89 -219 -97 -232 -12 -23 -13 -21
-20 37 -4 34 -11 62 -16 62 -5 0 -16 14 -25 31 -9 18 -59 74 -111 126 -93 92
-94 94 -61 91 38 -2 58 7 58 27 0 7 -37 38 -81 68 l-82 55 -52 -42 c-28 -22
-50 -44 -48 -48 2 -3 -7 -19 -20 -35 -30 -38 -93 -134 -100 -153 -3 -8 -6 6
-6 32 -1 68 -14 92 -71 137 -65 52 -122 56 -182 15 -21 -15 -38 -31 -38 -36 0
-6 -12 -24 -27 -42 l-26 -31 6 30 c4 17 10 64 13 105 4 41 11 80 16 87 16 20
-26 100 -64 123 -18 11 -35 19 -38 19 -3 -1 -12 -3 -21 -6z m278 -386 c-8 -79
-95 -207 -175 -258 -43 -27 -82 -38 -82 -22 0 27 146 248 196 297 54 52 68 48
61 -17z m408 -122 c26 -32 34 -49 26 -54 -8 -5 -5 -13 10 -27 12 -10 30 -36
41 -58 l20 -38 -60 -58 c-70 -68 -123 -90 -170 -71 -16 7 -33 22 -38 34 -11
26 -7 77 6 77 5 0 5 11 -2 24 -9 20 -6 36 12 83 13 32 29 65 35 73 7 8 20 30
29 48 20 40 35 34 91 -33z"/>
<path d="M2895 3231 c-42 -25 -144 -139 -161 -178 -8 -17 -19 -35 -25 -39 -6
-3 -26 -40 -45 -81 -19 -40 -40 -76 -49 -79 -9 -4 -14 -17 -13 -33 5 -73 -1
-87 -44 -111 -24 -13 -68 -41 -99 -62 -73 -51 -153 -80 -185 -68 -34 13 -31
49 11 155 7 17 18 45 25 63 7 18 24 43 39 55 14 13 27 29 29 37 2 8 31 39 64
70 81 74 118 95 118 68 0 -7 5 -29 10 -50 18 -62 62 -59 76 5 3 18 22 62 40
99 43 86 43 101 -3 128 l-37 22 -21 -25 c-11 -13 -24 -32 -30 -41 -9 -15 -18
-12 -88 28 l-79 45 -49 -25 c-27 -15 -49 -30 -49 -35 0 -5 -5 -9 -11 -9 -18 0
-108 -104 -109 -126 0 -11 -13 -30 -30 -42 -17 -13 -30 -29 -30 -38 0 -8 -14
-47 -30 -86 -55 -129 -59 -281 -8 -336 32 -34 93 -63 142 -68 71 -7 198 54
308 146 34 29 38 30 44 13 14 -47 37 -70 96 -101 34 -19 68 -38 74 -43 6 -5
31 -12 55 -15 35 -5 57 0 104 21 60 26 115 69 115 89 0 11 14 26 93 99 37 35
49 67 24 67 -8 0 -42 -18 -76 -40 -34 -22 -84 -51 -111 -65 -48 -24 -169 -49
-194 -39 -33 13 -42 100 -12 122 6 5 42 16 79 25 38 9 102 36 143 59 81 46
227 179 239 219 4 13 14 32 23 41 12 15 13 22 2 48 -20 49 -58 68 -162 84 -53
8 -109 21 -126 30 -39 20 -40 20 -77 -3z m153 -164 c18 -12 15 -22 -20 -57
-32 -31 -147 -104 -154 -97 -2 1 10 23 26 47 17 25 30 49 30 53 0 4 9 20 21
36 15 21 28 27 52 27 18 -1 38 -5 45 -9z"/>
<path d="M1985 3210 c-8 -16 -15 -34 -15 -41 0 -7 -21 -35 -47 -63 -27 -28
-91 -97 -145 -154 l-96 -103 48 96 c27 54 46 103 44 110 -3 6 7 20 22 30 21
13 24 19 13 26 -12 8 -11 12 3 23 15 11 4 16 -84 35 -56 12 -105 18 -108 14
-4 -5 -42 -96 -85 -203 -43 -107 -92 -226 -111 -265 -51 -110 -51 -108 -1
-160 25 -25 51 -45 60 -45 8 0 20 -7 27 -15 15 -19 30 -19 30 -2 0 16 33 57
46 57 5 1 34 37 64 81 30 44 69 98 87 119 17 22 33 43 35 47 2 5 23 26 47 48
24 22 41 34 37 28 -30 -54 -59 -254 -45 -309 12 -43 76 -146 99 -160 69 -40
115 -56 139 -48 36 13 36 31 1 49 -47 25 -75 92 -75 185 0 84 5 98 102 321 34
80 63 152 63 160 0 8 9 28 20 44 11 17 20 41 20 55 0 22 -8 28 -62 48 -87 31
-114 29 -133 -8z"/>
<path d="M3130 2473 c0 -21 -67 -133 -80 -133 -10 0 -52 -28 -110 -71 -56 -43
-155 -88 -186 -86 -24 2 -29 -2 -29 -22 0 -19 12 -31 60 -57 52 -28 68 -32
122 -29 45 2 69 9 89 24 15 11 30 21 35 21 10 0 0 -60 -12 -76 -5 -6 -11 -37
-15 -70 -6 -52 -13 -67 -64 -129 -31 -38 -69 -89 -84 -112 -15 -23 -34 -44
-41 -47 -8 -3 -23 -22 -33 -43 -47 -92 -106 -198 -112 -203 -4 -3 -29 -49 -56
-102 -53 -107 -68 -116 -117 -78 -30 24 -47 26 -47 6 0 -24 -33 -24 -85 2
l-49 24 29 -34 c17 -19 38 -45 47 -57 10 -11 25 -21 33 -21 8 0 15 -4 15 -9 0
-5 14 -14 30 -21 17 -7 33 -16 36 -21 6 -11 -81 -267 -99 -288 -26 -31 -19
-60 21 -77 20 -8 39 -18 42 -22 3 -4 22 -15 44 -25 33 -15 42 -16 67 -5 19 8
29 20 29 34 0 20 44 113 59 124 3 3 19 31 36 63 16 31 35 55 41 53 7 -3 9 5 6
20 -3 17 0 24 11 24 8 0 17 -5 19 -11 6 -17 162 -23 256 -9 84 12 166 33 187
49 5 4 45 18 87 31 43 14 78 28 78 32 0 4 24 20 53 34 28 15 65 42 80 60 16
19 32 34 36 34 4 0 34 24 65 54 55 51 70 72 103 141 8 17 19 38 25 49 5 10 12
52 15 93 6 73 5 74 -31 128 -50 72 -104 90 -258 89 -60 0 -108 2 -108 6 0 4
19 25 43 46 130 118 210 285 164 345 -21 28 -79 51 -129 52 -36 1 -65 -8 -118
-35 -38 -20 -70 -35 -70 -33 0 2 7 11 17 20 18 19 63 139 63 171 0 22 -13 30
-119 70 -36 13 -70 29 -78 35 -10 9 -13 7 -13 -8z m228 -440 c-22 -43 -48 -88
-59 -99 -11 -12 -30 -40 -42 -62 -33 -59 -125 -152 -152 -152 -13 0 -2 36 30
100 26 52 64 100 142 180 58 61 109 110 113 110 3 0 -11 -35 -32 -77z m262
-348 c15 -14 16 -21 4 -65 -15 -57 -77 -153 -111 -171 -13 -7 -23 -21 -23 -31
0 -22 -69 -87 -92 -88 -10 0 -23 -9 -30 -20 -7 -11 -41 -29 -75 -41 -72 -23
-85 -36 -49 -45 22 -5 23 -8 11 -20 -7 -8 -25 -14 -39 -14 -14 0 -28 -5 -31
-10 -4 -7 -12 -7 -25 0 -25 13 -30 13 -30 -5 0 -10 -10 -15 -31 -15 -16 0 -28
-4 -25 -9 4 -5 0 -11 -6 -14 -13 -5 -109 0 -176 8 -19 2 -30 0 -27 -6 4 -5 -5
-9 -19 -9 -14 0 -26 5 -26 10 0 6 6 10 14 10 9 0 16 17 21 45 5 39 9 45 25 40
17 -5 18 -3 11 22 -11 37 1 67 38 94 22 16 27 25 19 30 -10 7 -10 11 0 21 6 6
12 18 12 26 0 17 33 46 82 72 21 11 52 33 70 48 49 42 240 119 363 145 49 11
129 6 145 -8z"/>
<path d="M5945 2403 c-3 -21 -28 -92 -54 -158 -27 -66 -51 -136 -54 -155 -7
-48 -127 -351 -213 -540 -14 -30 -32 -68 -39 -85 -8 -16 -17 -45 -20 -62 -4
-18 -10 -33 -15 -33 -4 0 -11 -16 -14 -35 -4 -21 -16 -41 -29 -49 -12 -7 -62
-38 -111 -69 -131 -84 -216 -100 -216 -40 0 33 20 102 37 128 7 11 13 29 13
42 0 12 16 38 35 59 19 20 35 41 35 46 0 13 106 110 151 137 l39 23 0 -24 c0
-97 65 -121 84 -31 4 17 23 60 41 95 19 34 35 70 35 80 0 15 -59 58 -81 58 -5
0 -19 -16 -30 -35 -12 -19 -26 -35 -33 -35 -7 0 -43 18 -80 41 l-68 41 -49
-23 c-27 -13 -49 -29 -49 -36 0 -7 -6 -13 -14 -13 -20 0 -118 -110 -112 -126
3 -7 -11 -24 -30 -39 -19 -14 -34 -35 -34 -45 0 -11 -14 -54 -31 -97 -27 -67
-31 -92 -32 -175 l-2 -97 -20 32 c-17 27 -20 49 -20 149 0 109 2 118 24 142
28 30 23 49 -21 76 -42 26 -164 64 -183 57 -8 -3 -20 -19 -28 -34 -8 -15 -46
-61 -85 -101 -38 -40 -96 -110 -128 -157 -32 -46 -60 -82 -62 -80 -9 9 42 156
59 171 11 10 19 26 19 36 0 27 127 148 185 177 47 23 49 23 94 7 59 -21 74
-20 102 4 l24 20 -35 30 c-80 70 -91 78 -114 84 -13 3 -43 22 -66 41 -40 33
-80 46 -80 25 0 -5 -25 -21 -55 -35 -30 -15 -55 -30 -55 -35 0 -5 -25 -26 -55
-47 -46 -31 -62 -50 -90 -108 -18 -38 -47 -113 -63 -165 -66 -207 -64 -308 6
-366 65 -53 143 -70 162 -34 6 11 15 20 21 20 14 0 98 89 160 170 29 38 56 70
60 70 4 0 17 -24 29 -54 46 -115 127 -175 233 -176 33 0 71 -7 89 -16 44 -23
97 -26 143 -8 82 33 111 47 153 75 28 19 42 24 42 15 0 -8 12 -18 28 -24 15
-5 53 -28 86 -50 32 -22 64 -38 71 -36 13 5 35 47 35 68 0 7 11 36 25 64 14
29 25 57 25 63 0 36 89 175 156 246 l76 78 -35 -65 c-58 -108 -80 -185 -73
-258 3 -35 16 -87 29 -116 23 -49 30 -55 109 -94 93 -46 141 -53 179 -23 13
10 29 20 36 22 6 2 33 25 60 50 39 37 54 61 77 125 43 123 43 124 8 124 -30 0
-80 -34 -190 -131 -51 -45 -97 -65 -107 -49 -13 22 -1 120 21 162 8 15 14 36
14 48 0 11 7 23 15 26 8 4 15 11 15 16 0 15 70 170 85 188 15 19 45 127 45
163 0 37 -25 47 -122 47 -83 0 -84 0 -119 -36 -32 -34 -111 -94 -123 -94 -10
0 6 34 27 57 10 12 17 26 14 30 -3 5 1 22 9 37 7 16 14 34 14 40 0 7 5 17 11
23 11 11 24 43 63 158 9 28 21 59 26 70 18 41 50 146 50 164 0 10 9 30 21 45
40 50 14 93 -88 145 -59 29 -70 27 -78 -16z"/>
<path d="M2054 2233 c-7 -35 -44 -116 -54 -123 -4 -3 -14 -19 -21 -37 -18 -42
-180 -242 -197 -243 -7 0 -10 -4 -7 -10 7 -12 -22 -70 -35 -70 -6 0 -10 -6
-10 -12 0 -7 -27 -48 -60 -91 -33 -42 -60 -82 -60 -87 0 -5 -6 -13 -13 -17 -8
-4 -26 -32 -42 -60 -15 -29 -32 -53 -37 -53 -4 0 -8 -6 -8 -14 0 -8 -23 -41
-51 -73 -28 -32 -58 -70 -67 -85 -21 -36 -31 -40 -144 -46 -54 -2 -98 -8 -98
-12 0 -15 30 -32 99 -53 l71 -23 -63 -104 c-34 -57 -81 -124 -105 -148 -25
-25 -41 -50 -38 -58 9 -23 92 -22 137 2 64 33 166 159 231 286 28 55 31 58 91
76 34 11 79 22 101 26 35 7 38 6 31 -11 -12 -29 -15 -72 -6 -77 5 -3 -2 -47
-15 -97 -13 -50 -21 -95 -18 -100 3 -6 1 -16 -6 -24 -6 -7 -13 -35 -14 -63 -2
-27 -13 -69 -24 -94 -12 -28 -22 -81 -27 -144 -4 -54 -13 -115 -20 -134 -14
-36 -28 -133 -27 -185 2 -100 4 -115 18 -115 8 0 14 5 14 12 0 8 3 9 10 2 8
-8 6 -33 -5 -85 -18 -89 -18 -89 -2 -89 17 0 59 95 96 216 17 56 38 107 46
114 12 10 13 15 4 21 -9 5 -8 14 2 38 8 17 17 31 21 31 5 0 8 9 8 20 0 10 6
23 13 27 14 9 47 101 47 132 0 12 4 29 9 39 21 38 51 244 53 362 0 26 30 168
50 235 12 44 41 75 68 75 10 0 20 3 22 8 2 4 23 20 48 36 101 67 119 100 48
90 -24 -3 -60 -10 -82 -16 -21 -5 -40 -7 -43 -4 -12 12 12 69 44 106 25 28 38
53 40 78 5 58 24 115 50 143 16 17 20 28 12 36 -7 7 2 34 31 88 22 43 40 84
40 92 0 7 3 13 8 13 4 0 15 27 25 59 13 42 25 62 43 70 18 8 24 18 24 44 0 42
-32 62 -119 71 -36 4 -74 14 -85 22 -30 21 -45 17 -52 -13z m-194 -555 c-30
-116 -99 -300 -119 -318 -20 -18 -129 -56 -136 -48 -8 7 16 58 27 58 4 0 8 8
8 18 0 10 6 26 14 37 7 11 17 31 21 44 4 13 21 45 39 70 42 62 53 81 70 116 7
17 25 40 40 52 14 13 26 28 26 33 0 15 24 40 28 29 2 -5 -6 -45 -18 -91z"/>
<path d="M4025 1802 c-43 -27 -155 -150 -171 -188 -8 -18 -19 -36 -25 -40 -6
-3 -26 -39 -44 -79 -18 -40 -41 -75 -50 -79 -10 -3 -14 -13 -11 -23 3 -10 1
-45 -4 -77 -12 -74 2 -140 39 -179 29 -32 147 -93 195 -103 58 -10 196 59 216
109 5 12 19 32 32 44 83 77 98 93 98 107 0 26 -31 18 -92 -24 -85 -60 -161
-92 -234 -98 -78 -6 -94 4 -94 63 0 49 22 75 64 75 43 0 129 35 203 82 76 49
198 167 209 201 3 12 13 30 22 39 14 16 13 22 -3 58 -21 46 -57 63 -172 80
-79 11 -118 23 -128 39 -9 15 -15 14 -50 -7z m117 -167 c7 3 22 -1 32 -8 17
-12 15 -16 -31 -58 -27 -24 -74 -57 -104 -73 l-54 -30 20 30 c10 16 30 49 43
74 33 63 52 82 67 70 7 -6 19 -8 27 -5z"/>
<path d="M4168 579 c-174 -4 -390 -12 -480 -19 -267 -19 -718 -68 -865 -94
-76 -13 -219 -38 -318 -56 -99 -17 -193 -33 -209 -36 -27 -6 -28 -8 -24 -48 3
-22 27 -96 53 -163 35 -91 52 -123 65 -123 9 0 52 16 94 36 42 19 154 55 247
79 93 25 200 53 237 64 37 11 120 30 186 41 65 12 193 37 284 56 170 36 446
64 626 64 74 0 87 2 77 14 -10 11 6 15 91 20 57 3 150 7 208 8 132 2 151 11
40 19 l-85 5 93 2 c59 1 91 6 87 12 -4 6 36 10 114 10 66 0 131 4 145 10 17 6
53 6 102 0 62 -8 81 -7 106 6 27 14 31 14 47 0 19 -17 96 -23 86 -6 -13 22
347 -2 432 -28 l62 -20 6 43 c4 23 5 53 3 66 l-3 24 -165 2 c-96 1 -155 -2
-140 -7 14 -4 42 -8 62 -9 48 -1 68 -10 68 -29 0 -14 -41 -15 -394 -9 -311 6
-403 10 -436 22 -23 8 -57 15 -74 15 -17 0 -38 5 -46 11 -11 8 39 9 175 5 105
-3 219 -2 255 2 59 7 50 8 -89 15 -169 8 -253 7 -723 -4z"/>
<path d="M5170 573 c0 -5 5 -15 10 -23 7 -12 12 -12 22 -2 6 6 26 12 43 13 26
0 27 2 10 9 -25 11 -85 13 -85 3z"/>
<path d="M4888 543 c12 -2 32 -2 45 0 12 2 2 4 -23 4 -25 0 -35 -2 -22 -4z"/>
<path d="M5369 529 c-10 -6 -4 -9 19 -9 17 0 32 2 32 4 0 9 -39 13 -51 5z"/>
<path d="M4725 430 c-3 -5 1 -10 9 -10 8 0 18 5 21 10 3 6 -1 10 -9 10 -8 0
-18 -4 -21 -10z"/>
<path d="M4293 393 c9 -2 25 -2 35 0 9 3 1 5 -18 5 -19 0 -27 -2 -17 -5z"/>
<path d="M4048 313 c6 -2 18 -2 25 0 6 3 1 5 -13 5 -14 0 -19 -2 -12 -5z"/>
</g>
</svg>
