<?xml version="1.0" encoding="utf-8"?>
<!-- Generator: Adobe Illustrator 19.2.1, SVG Export Plug-In . SVG Version: 6.00 Build 0)  -->
<svg version="1.1" id="Laag_1" xmlns="http://www.w3.org/2000/svg" xmlns:xlink="http://www.w3.org/1999/xlink" x="0px" y="0px"
	 viewBox="0 0 1063 61.8" style="enable-background:new 0 0 1063 61.8;" xml:space="preserve">
<style type="text/css">
	.st0{fill:#ff464e;}
</style>
<g>
	<path class="st0" d="M22.5,61.8L0.4,61.7L0.2,43.3C0.1,33.1,0,19.6,0,13.1V1.3L0.8,1C3,0.2,5.8,0.9,7.9,3C9.2,4.3,9.2,4.3,10,3.7
		c4.4-2.8,8.2-2.2,10,1.5c0.8,1.6,0.7,1.5,2.5,0.7c3.9-1.7,8.1,0.1,9,3.8c0.4,1.6,0.5,1.6,2.8,1.1c3.5-0.8,6.8,1.7,7.5,5.6
		c0.2,1.2,0.3,1.3,3.1,1.6c3.8,0.4,5.4,2.1,5.6,6.2l0.2,2.6h1.3c4,0,6.8,4.4,5.6,8.6c-0.2,0.8-0.1,0.9,1.9,1.8
		c2.6,1.2,2.6,1.2,5.1,0.1c2.2-1,2.1-0.9,1.6-2.9c-0.9-3.2,2.3-7.6,5.6-7.6c1.2,0,1.5-0.4,1.8-2.6c0.6-4.1,2-5.7,5.5-6.1
		c2.8-0.3,3.1-0.4,3.1-1.2c0-4.2,3.9-7,8-5.9c1.9,0.5,2.1,0.4,2.1-0.6c0-3.5,4.9-5.9,8.9-4.4c2,0.8,2.1,0.8,2.6-0.4
		c0.9-2,3.3-3.6,5.6-3.6c1.2,0,4.1,1.2,4.5,1.8c0.4,0.7,1.4,0.3,2.2-0.7c2.3-3,6.5-3.1,9.6-0.1c1.3,1.3,1.3,1.3,2.1,0.8
		c4.4-2.8,8.2-2.2,10,1.5c0.8,1.6,0.7,1.5,2.5,0.7c3.9-1.7,8.1,0.1,9,3.8c0.4,1.6,0.5,1.6,2.8,1.1c3.5-0.8,6.8,1.7,7.5,5.6
		c0.2,1.2,0.3,1.3,3.1,1.6c3.8,0.4,5.4,2.1,5.6,6.2l0.2,2.6h1.3c4,0,6.8,4.4,5.6,8.6c-0.2,0.8-0.1,0.9,1.9,1.8
		c2.6,1.2,2.6,1.2,5.1,0.1c2.2-1,2.1-0.9,1.6-2.9c-0.9-3.2,2.3-7.6,5.6-7.6c1.2,0,1.5-0.4,1.8-2.6c0.6-4.1,2-5.7,5.5-6.1
		c2.8-0.3,3.1-0.4,3.1-1.2c0-4.2,3.9-7,8-5.9c1.9,0.5,2.1,0.4,2.1-0.6c0-3.5,4.9-5.9,8.9-4.4c2,0.8,2.1,0.8,2.6-0.4
		c0.9-2,3.3-3.6,5.6-3.6c1.2,0,4.1,1.2,4.5,1.8c0.4,0.7,1.4,0.3,2.2-0.7c2.3-3,6.5-3.1,9.6-0.1c1.3,1.3,1.3,1.3,2.1,0.8
		c4.4-2.8,8.2-2.2,10,1.5c0.8,1.6,0.7,1.5,2.5,0.7c3.9-1.7,8.1,0.1,9,3.8c0.4,1.6,0.5,1.6,2.8,1.1c3.5-0.8,6.8,1.7,7.5,5.6
		c0.2,1.2,0.3,1.3,3.1,1.6c3.8,0.4,5.4,2.1,5.6,6.2l0.2,2.6h1.3c4,0,6.8,4.4,5.6,8.6c-0.2,0.8-0.1,0.9,1.9,1.8
		c2.6,1.2,2.6,1.2,5.1,0.1c2.2-1,2.1-0.9,1.6-2.9c-0.9-3.2,2.3-7.6,5.6-7.6c1.2,0,1.5-0.4,1.8-2.6c0.6-4.1,2-5.7,5.5-6.1
		c2.8-0.3,3.1-0.4,3.1-1.2c0-4.2,3.9-7,8-5.9c1.9,0.5,2.1,0.4,2.1-0.6c0-3.5,4.9-5.9,8.9-4.4c2,0.8,2.1,0.8,2.6-0.4
		c0.9-2,3.3-3.6,5.6-3.6c1.2,0,4.1,1.2,4.5,1.8c0.4,0.7,1.4,0.3,2.2-0.7c2.3-3,6.5-3.1,9.6-0.1c1.3,1.3,1.3,1.3,2.1,0.8
		c4.4-2.8,8.2-2.2,10,1.5c0.8,1.6,0.7,1.5,2.5,0.7c3.9-1.7,8.1,0.1,9,3.8c0.4,1.6,0.5,1.6,2.8,1.1c3.5-0.8,6.8,1.7,7.5,5.6
		c0.2,1.2,0.3,1.3,3.1,1.6c3.8,0.4,5.4,2.1,5.6,6.2l0.2,2.6h1.3c4,0,6.8,4.4,5.6,8.6c-0.2,0.8-0.1,0.9,1.9,1.8
		c2.6,1.2,2.6,1.2,5.1,0.1c2.2-1,2.1-0.9,1.6-2.9c-0.9-3.2,2.3-7.6,5.6-7.6c1.2,0,1.5-0.4,1.8-2.6c0.6-4.1,2-5.7,5.5-6.1
		c2.8-0.3,3.1-0.4,3.1-1.2c0-4.2,3.9-7,8-5.9c1.9,0.5,2.1,0.4,2.1-0.6c0-3.5,4.9-5.9,8.9-4.4c2,0.8,2.1,0.8,2.6-0.4
		c0.9-2,3.3-3.6,5.6-3.6c1.2,0,4.1,1.2,4.5,1.8c0.4,0.7,1.4,0.3,2.2-0.7c2.3-3,6.5-3.1,9.6-0.1c1.3,1.3,1.3,1.3,2.1,0.8
		c4.4-2.8,8.2-2.2,10,1.5c0.8,1.6,0.7,1.5,2.5,0.7c3.9-1.7,8.1,0.1,9,3.8c0.4,1.6,0.5,1.6,2.8,1.1c3.5-0.8,6.8,1.7,7.5,5.6
		c0.2,1.2,0.3,1.3,3.1,1.6c3.8,0.4,5.4,2.1,5.6,6.2l0.2,2.6h1.3c4,0,6.8,4.4,5.6,8.6c-0.2,0.8,3,2.7,4.5,2.7c0.4,0,4.2-1.5,4.4-1.7
		c0.1,0-0.1-0.9-0.3-1.9c-0.8-4,1.1-6.5,5.8-7.7c0.7-0.2,1.3-0.4,1.3-0.5c0.1-4.9,2.1-7.8,5.8-8.2c2.8-0.3,3.1-0.4,3.1-1.2
		c0-4.2,3.9-7,8-5.9c1.9,0.5,2.1,0.4,2.1-0.6c0-3.5,4.9-5.9,8.9-4.4c2,0.8,2.1,0.8,2.6-0.4c0.9-2,3.3-3.6,5.6-3.6
		c1.2,0,4.1,1.2,4.5,1.8c0.4,0.7,1.4,0.3,2.2-0.7c2.3-3,6.5-3.1,9.6-0.1c1.3,1.3,1.3,1.3,2.1,0.8c4.4-2.8,8.2-2.2,10,1.5
		c0.8,1.6,0.7,1.5,2.5,0.7c3.9-1.7,8.1,0.1,9,3.8c0.4,1.6,0.5,1.6,2.8,1.1c3.5-0.8,6.8,1.7,7.5,5.6c0.2,1.2,0.3,1.3,3.1,1.6
		c3.8,0.4,5.4,2.1,5.6,6.2l0.2,2.6h1.3c4,0,6.8,4.4,5.6,8.6c-0.2,0.8,3,2.7,4.5,2.7c0.4,0,4.2-1.5,4.4-1.7c0.1,0-0.1-0.9-0.3-1.9
		c-0.8-4,1.1-6.5,5.8-7.7c0.7-0.2,1.3-0.4,1.3-0.5c0.1-4.9,2.1-7.8,5.8-8.2c2.8-0.3,3.1-0.4,3.1-1.2c0-4.2,3.9-7,8-5.9
		c1.9,0.5,2.1,0.4,2.1-0.6c0-3.5,4.9-5.9,8.9-4.4c2,0.8,2.1,0.8,2.6-0.4c0.9-2,3.3-3.6,5.6-3.6c1.2,0,4.1,1.2,4.5,1.8
		c0.4,0.7,1.4,0.3,2.2-0.7c2.3-3,6.5-3.1,9.6-0.1c1.3,1.3,1.3,1.3,2.1,0.8c4.4-2.8,8.2-2.2,10,1.5c0.8,1.6,0.7,1.5,2.5,0.7
		c3.9-1.7,8.1,0.1,9,3.8c0.4,1.6,0.5,1.6,2.8,1.1c3.5-0.8,6.8,1.7,7.5,5.6c0.2,1.2,0.3,1.3,3.1,1.6c3.8,0.4,5.4,2.1,5.6,6.2l0.2,2.6
		h1.3c4,0,6.8,4.4,5.6,8.6c-0.2,0.8,3,2.7,4.5,2.7c0.4,0,4.2-1.5,4.4-1.7c0.1,0-0.1-0.9-0.3-1.9c-0.8-3.9,1.1-6.5,5.7-7.7
		c1.3-0.3,1.6-1,1.6-3.4c0-2.8,2.4-5.1,5.8-5.5c2.5-0.3,2.7-0.4,2.7-1.6c0-3.5,3.3-5.8,7.9-5.3l2.2,0.2v-0.9c0-3.5,4.7-5.8,8.8-4.4
		c2.2,0.8,2.2,0.8,2.7-0.4c0.9-2,3.3-3.6,5.6-3.6c1.2,0,4.1,1.2,4.5,1.8c0.4,0.7,1.4,0.3,2.2-0.7c2.3-3,6.5-3.1,9.6-0.1
		c1.3,1.3,1.3,1.3,2.1,0.8c4.4-2.8,8.2-2.2,10,1.5c0.8,1.6,0.7,1.5,2.5,0.7c3.9-1.7,8.1,0.1,9,3.8c0.4,1.6,0.5,1.6,2.8,1.1
		c3.5-0.8,6.8,1.7,7.5,5.6c0.2,1.2,0.3,1.3,3.1,1.6c3.8,0.4,5.4,2.1,5.6,6.2l0.2,2.6h1.3c4,0,6.8,4.4,5.6,8.6
		c-0.2,0.8,3,2.7,4.5,2.7c0.4,0,4.2-1.5,4.4-1.7c0.1,0-0.1-0.9-0.3-1.9c-0.8-3.9,1.1-6.5,5.7-7.7c1.3-0.3,1.6-1,1.6-3.4
		c0-2.8,2.4-5.1,5.8-5.5c2.5-0.3,2.7-0.4,2.7-1.6c0-3.5,3.3-5.8,7.9-5.3l2.2,0.2v-0.9c0-3.5,4.7-5.8,8.8-4.4
		c2.2,0.8,2.2,0.8,2.7-0.4c0.9-2,3.3-3.6,5.6-3.6c1.2,0,4.1,1.2,4.5,1.8c0.4,0.7,1.4,0.3,2.2-0.7c2.3-3,6.5-3.1,9.6-0.1
		c1.3,1.3,1.3,1.3,2.1,0.8c4.4-2.8,8.2-2.2,10,1.5c0.8,1.6,0.7,1.5,2.5,0.7c3.9-1.7,8.1,0.1,9,3.8c0.4,1.6,0.5,1.6,2.8,1.1
		c3.5-0.8,6.8,1.7,7.5,5.6c0.2,1.2,0.3,1.3,3.1,1.6c3.8,0.4,5.4,2.1,5.6,6.2l0.2,2.6h1.3c4,0,6.8,4.4,5.6,8.6
		c-0.2,0.8,3,2.7,4.5,2.7c0.4,0,4.2-1.5,4.4-1.7c0.1,0-0.1-0.9-0.3-1.9c-0.8-3.9,1.1-6.5,5.7-7.7c1.3-0.3,1.6-1,1.6-3.4
		c0-2.8,2.4-5.1,5.8-5.5c2.5-0.3,2.7-0.4,2.7-1.6c0-3.5,3.3-5.8,7.9-5.3l2.2,0.2v-0.9c0-3.5,4.7-5.8,8.8-4.4
		c2.2,0.8,2.2,0.8,2.7-0.4c0.9-2,3.3-3.6,5.6-3.6c1.2,0,4.1,1.2,4.5,1.8c0.4,0.7,1.4,0.3,2.2-0.7c1-1.3,3-2.3,4.5-2.3h1.1v30.3
		c0,24-0.1,30.4-0.4,30.5C1062.2,61.7,56.5,61.9,22.5,61.8z"/>
</g>
</svg>
