<?xml version="1.0" standalone="no"?>
<!-- Created with Make The Cut! -->
<!DOCTYPE svg PUBLIC "-//W3C//DTD SVG 1.1//EN" "http://www.w3.org/Graphics/SVG/1.1/DTD/svg11.dtd">
<svg mtc_dpi="90" xmlns="http://www.w3.org/2000/svg" version="1.1">
	<g stroke="none" fill="#fff">
		<path d="M173.195419,225.234131 L0.390785,225.099762 L0.217838,193.108063 C0.000000,152.816254 0.308044,40.392929 0.636864,40.170151 C0.772217,40.078445 1.415863,40.306961 2.067230,40.677963 C2.718513,41.048950 4.865139,42.277359 6.837444,43.407776 C33.251060,58.546326 67.589859,58.070526 95.528427,42.178909 C98.439560,40.522995 100.105270,39.743271 101.103561,39.569031 C102.076538,39.399246 104.921234,38.098053 110.089951,35.458450 C122.848175,28.943146 134.067963,24.512894 147.767654,20.581070 C219.478851,0.000000 313.007355,6.468018 368.094421,35.817917 C371.164490,37.453644 374.386597,39.122177 375.254578,39.525772 C376.122589,39.929398 378.846863,41.672592 381.308838,43.399536 C416.210510,67.882751 474.472198,67.532593 507.956787,42.638290 L512.058289,39.588898 L513.903809,39.650360 L515.749390,39.711899 L516.927795,42.806183 C538.070679,98.317413 689.089417,133.126587 846.078064,118.673828 C949.843201,109.121002 1033.695435,78.189194 1057.116577,40.825165 L1057.887939,39.594696 L1060.439819,39.594696 L1062.991943,39.594696 L1062.991943,132.274811 C1062.991943,183.248901 1062.875122,225.003448 1062.732544,225.062805 C1062.300659,225.242401 358.272980,225.377991 173.195419,225.234131 z" />
	</g>
</svg>